<svg xmlns="http://www.w3.org/2000/svg" viewBox="0 0 720.35 239.34"><defs><style>.cls-1{fill:#b3e2fa;}.cls-2{fill:#17a0f0;}.cls-3{fill:#e5f5fd;}.cls-4{fill:#fff;}.cls-5,.cls-6{fill:none;}.cls-6{stroke:#b3e2fa;stroke-linecap:round;stroke-linejoin:round;}</style></defs><title>CDLJN-illustration_home-full</title><g id="Layer_2" data-name="Layer 2"><g id="lines"><path class="cls-1" d="M649,36.74a1.53,1.53,0,0,1-2.58,1.11l-4.75-4.5a1.53,1.53,0,0,1,2.1-2.22l4.75,4.5A1.53,1.53,0,0,1,649,36.74Z"/><path class="cls-1" d="M663.9,24.06a1.53,1.53,0,0,1-3,.43L659,18.23a1.53,1.53,0,0,1,2.93-.87l1.86,6.27A1.52,1.52,0,0,1,663.9,24.06Z"/><path class="cls-1" d="M683.49,15.77a1.55,1.55,0,0,1,0,.36l-1.52,6.36a1.53,1.53,0,0,1-3-.71l1.52-6.36a1.53,1.53,0,0,1,3,.35Z"/><path class="cls-1" d="M703.88,24.1a1.52,1.52,0,0,1-.42,1.05L699,29.9a1.53,1.53,0,1,1-2.22-2.1l4.5-4.75a1.53,1.53,0,0,1,2.64,1.05Z"/><path class="cls-1" d="M717.38,41.52A1.53,1.53,0,0,1,716.28,43L710,44.85a1.53,1.53,0,1,1-.87-2.93l6.27-1.86a1.53,1.53,0,0,1,2,1.47Z"/><path class="cls-1" d="M720.35,63.35a1.55,1.55,0,0,1,0,.36,1.53,1.53,0,0,1-1.84,1.13l-6.36-1.52a1.53,1.53,0,1,1,.71-3l6.36,1.52A1.53,1.53,0,0,1,720.35,63.35Z"/><path class="cls-1" d="M709.65,85.8a1.41,1.41,0,0,1-1-.39l-4.75-4.5a1.42,1.42,0,1,1,1.95-2.06l4.75,4.5a1.42,1.42,0,0,1-1,2.44Z"/><path class="cls-1" d="M626.22,128.25H580.34a1.55,1.55,0,0,1-1.55-1.55V44.38a.85.85,0,0,1,.32-.65,1.46,1.46,0,0,1,2.52,1v80.71h44.94a.85.85,0,0,1,.65.32A1.46,1.46,0,0,1,626.22,128.25Z"/><path class="cls-2" d="M611.47,114.09a3.89,3.89,0,1,1,3.89-3.89A3.9,3.9,0,0,1,611.47,114.09Zm0-6.37a2.48,2.48,0,1,0,2.48,2.48A2.48,2.48,0,0,0,611.47,107.72Z"/><polygon class="cls-3" points="615.92 42.59 594.37 63.88 594.37 93.11 628.35 59.54 628.35 42.59 615.92 42.59"/><polygon class="cls-3" points="594.37 103.47 598.51 103.47 628.35 75.21 628.35 65.11 594.37 97.3 594.37 103.47"/><path class="cls-2" d="M627.4,41.88H594.12a.71.71,0,1,1,0-1.42H627.4a.71.71,0,0,1,0,1.42Z"/><circle class="cls-2" cx="675.78" cy="57.45" r="19.12"/><path class="cls-4" d="M674.26,65.95a1.85,1.85,0,1,0,3.69,0Zm7.89-4.61V55.4a6.89,6.89,0,0,0-5-6.79V48a1.59,1.59,0,0,0-1.42-1.65,1.39,1.39,0,0,0-1.42,1.53v.74a6.89,6.89,0,0,0-5,6.79v6.18l-2.12,2.13v.82h17V63.47l-2.12-2.13Z"/><polygon class="cls-5" points="707.64 138.04 707.64 137.45 706.59 137.45 707.64 138.04"/><path class="cls-3" d="M714.45,92.85H639a1.42,1.42,0,0,0-1.42,1.42V97.1h70.63a1.85,1.85,0,0,1,1.19.36c.36.32.4.61.4,1.42v38.57h4.69a2.84,2.84,0,0,0,1.69-1.71V93.86C715.87,93.08,714.45,92.85,714.45,92.85Z"/><path class="cls-2" d="M710.07,97.49a1.75,1.75,0,0,0-1.19-.39H628.24a3.31,3.31,0,0,0-1.93.49h0a1.85,1.85,0,0,0-.79,1.53v4.35H594.37a.71.71,0,1,0,0,1.42h31.15v10.62h-34V38.34h39.65V90.67a1.45,1.45,0,0,0,1,1.4A1.42,1.42,0,0,0,634,90.73V38.34a2.83,2.83,0,0,0-2.83-2.83H591.53a2.83,2.83,0,0,0-2.83,2.83v77.17a2.83,2.83,0,0,0,2.83,2.83h34v13.39a1.45,1.45,0,0,0,1,1.4,1.42,1.42,0,0,0,1.88-1.34V101.16l9.6,6.11,26.42,16.83a6.83,6.83,0,0,0,3.58,1,6.75,6.75,0,0,0,3.61-1l36.08-22.43v36.11l-1.05-.59L686.1,125.72a1.42,1.42,0,0,0-2.06.87,1.46,1.46,0,0,0,.74,1.63l16,8.94,3.06,1.71h-71.7l5.8-3.23,12.87-7.17a1.46,1.46,0,0,0,.74-1.63,1.42,1.42,0,0,0-2.06-.88l-11.55,6.44L626,139a1.45,1.45,0,0,0-.76,1,1.42,1.42,0,0,0,1.4,1.66H709.1c.9,0,1.37-.5,1.37-1.06V99.05C710.47,98.16,710.43,97.85,710.07,97.49Zm-40.27,24a4.26,4.26,0,0,1-4.17,0L637.7,103.72l-5.95-3.79,73-.18Z"/><path class="cls-3" d="M291.82,52.17a1.34,1.34,0,0,1-.73-2.47,9.18,9.18,0,0,0,4-6.66,1.34,1.34,0,1,1,2.66.37A11.82,11.82,0,0,1,292.55,52,1.34,1.34,0,0,1,291.82,52.17Z"/><path class="cls-3" d="M295,37.28a1.34,1.34,0,0,1-1.15-.65,9.93,9.93,0,0,0-8.48-4.81,9.82,9.82,0,0,0-7.78,3.79A1.34,1.34,0,0,1,275.45,34a12.48,12.48,0,0,1,9.89-4.82,12.62,12.62,0,0,1,10.78,6.12,1.34,1.34,0,0,1-1.15,2Z"/><path class="cls-3" d="M301.2,33.72a1.34,1.34,0,0,1-1.16-.66,17,17,0,0,0-11.91-8.19,1.34,1.34,0,0,1,.43-2.65,19.66,19.66,0,0,1,13.79,9.48,1.34,1.34,0,0,1-1.15,2Z"/><path class="cls-3" d="M268.25,36.25A1.34,1.34,0,0,1,267,34.41,19.71,19.71,0,0,1,276.68,24a1.34,1.34,0,1,1,1.18,2.41,17,17,0,0,0-8.36,9A1.34,1.34,0,0,1,268.25,36.25Z"/><path class="cls-3" d="M291.82,60.23a1.34,1.34,0,0,1-.42-2.62c5.62-1.85,9.63-6.7,10.72-13a1.34,1.34,0,1,1,2.64.46c-1.27,7.27-6,12.9-12.53,15.07A1.34,1.34,0,0,1,291.82,60.23Z"/><path class="cls-3" d="M306.8,29.73a1.34,1.34,0,0,1-1.14-.63A24,24,0,0,0,302,24.56a1.34,1.34,0,1,1,1.87-1.92,26.7,26.7,0,0,1,4.06,5,1.34,1.34,0,0,1-1.14,2Z"/><path class="cls-3" d="M261.21,35.64a1.34,1.34,0,0,1-1.28-1.73,26.59,26.59,0,0,1,40-14.45,1.34,1.34,0,0,1-1.47,2.24,23.91,23.91,0,0,0-36,13A1.34,1.34,0,0,1,261.21,35.64Z"/><path class="cls-3" d="M292.3,67.29a1.34,1.34,0,0,1-.37-2.63A24,24,0,0,0,308.87,45.9a1.34,1.34,0,0,1,2.64.47,26.72,26.72,0,0,1-18.83,20.86A1.34,1.34,0,0,1,292.3,67.29Z"/><path class="cls-3" d="M256.3,29.73a1.34,1.34,0,0,1-1.22-1.9A33.38,33.38,0,0,1,285.34,8.41,33,33,0,0,1,312,21.74a1.34,1.34,0,0,1-2.15,1.61,30.36,30.36,0,0,0-24.49-12.26A30.69,30.69,0,0,0,257.52,29,1.34,1.34,0,0,1,256.3,29.73Z"/><path class="cls-3" d="M292.28,74.2a1.34,1.34,0,0,1-.29-2.65,30.81,30.81,0,0,0,19.13-13.39,1.34,1.34,0,0,1,2.26,1.45,33.52,33.52,0,0,1-20.81,14.56A1.35,1.35,0,0,1,292.28,74.2Z"/><path class="cls-3" d="M315.14,54.52a1.34,1.34,0,0,1-1.25-1.82,30.44,30.44,0,0,0,1.44-4.94,1.34,1.34,0,1,1,2.63.53,33.17,33.17,0,0,1-1.57,5.37A1.34,1.34,0,0,1,315.14,54.52Z"/><path class="cls-1" d="M317.51,7.47a1.34,1.34,0,0,1-2.26-1.4L317.54.81A1.34,1.34,0,0,1,320,1.87l-2.28,5.26A1.34,1.34,0,0,1,317.51,7.47Z"/><path class="cls-1" d="M335.36,12.93a1.36,1.36,0,0,1-.23.22l-4.61,3.42a1.34,1.34,0,0,1-1.6-2.15L333.53,11a1.34,1.34,0,0,1,1.83,1.94Z"/><path class="cls-1" d="M344.36,30a1.34,1.34,0,0,1-.87.47l-5.7.66a1.34,1.34,0,1,1-.31-2.66l5.7-.66A1.34,1.34,0,0,1,344.36,30Z"/><path class="cls-1" d="M343.62,49.34a1.34,1.34,0,0,1-1.56.37l-5.26-2.28A1.34,1.34,0,1,1,337.86,45l5.26,2.28a1.34,1.34,0,0,1,.49,2.09Z"/><path class="cls-1" d="M333.31,65.69a1.36,1.36,0,0,1-.23.22,1.34,1.34,0,0,1-1.88-.28L327.79,61a1.34,1.34,0,1,1,2.15-1.6L333.36,64A1.34,1.34,0,0,1,333.31,65.69Z"/><path class="cls-1" d="M280.44,128h-63a2.69,2.69,0,0,1-2.68-2.68V43.56a1.34,1.34,0,1,1,2.68,0v81.81h63a1.34,1.34,0,1,1,0,2.68Z"/><rect class="cls-1" x="233.51" y="45.57" width="20.12" height="11.4" rx="1.9" ry="1.9"/><path class="cls-3" d="M282.46,67H234.18a1.34,1.34,0,1,1,0-2.68h48.28a1.34,1.34,0,1,1,0,2.68Z"/><path class="cls-3" d="M282.46,73.06H234.18a1.34,1.34,0,1,1,0-2.68h48.28a1.34,1.34,0,1,1,0,2.68Z"/><path class="cls-3" d="M282.46,79.77H234.18a1.34,1.34,0,1,1,0-2.68h48.28a1.34,1.34,0,1,1,0,2.68Z"/><path class="cls-3" d="M282.46,85.81H234.18a1.34,1.34,0,1,1,0-2.68h48.28a1.34,1.34,0,1,1,0,2.68Z"/><path class="cls-3" d="M282.46,91.84H234.18a1.34,1.34,0,1,1,0-2.68h48.28a1.34,1.34,0,1,1,0,2.68Z"/><polygon class="cls-1" points="318.76 40.2 310.19 35.89 316.16 28.39 324.73 32.7 318.76 40.2"/><path class="cls-2" d="M326,32.42a1.34,1.34,0,0,0-.71-.91l-8.57-4.31a1.34,1.34,0,0,0-1.65.36l-5.41,6.79-16.52,4.11V35.68A2.17,2.17,0,0,0,291,33.5h-66.1A1.47,1.47,0,0,0,223.45,35v73.28a.81.81,0,0,0,.3.62,1.39,1.39,0,0,0,2.38-.94V36.19H290.5v2.94l-4,1v-.49a1.37,1.37,0,0,0-.9-1.33,1.35,1.35,0,0,0-1.78,1.27v3.69a1.37,1.37,0,0,0,.9,1.33,1.35,1.35,0,0,0,1.78-1.27v-.47a4.27,4.27,0,0,0,.45,0l3.58-.89v74.76h-65a1.34,1.34,0,1,0,0,2.68H291a2.17,2.17,0,0,0,2.17-2.17V41.22l16.47-4.1,8.5,4.28a1.34,1.34,0,0,0,1.65-.36l6-7.49A1.34,1.34,0,0,0,326,32.42Zm-7.65,6.09-6.12-3.08,4.26-5.35,6.12,3.08Z"/><rect class="cls-1" x="55.45" y="47.78" width="46.26" height="10.92" rx="1.9" ry="1.9"/><rect class="cls-1" x="55.45" y="62.56" width="46.26" height="10.92" rx="1.9" ry="1.9"/><rect class="cls-3" x="55.45" y="77.98" width="46.26" height="10.92" rx="1.9" ry="1.9"/><rect class="cls-3" x="55.45" y="92.76" width="46.26" height="10.92" rx="1.9" ry="1.9"/><circle class="cls-5" cx="8.58" cy="36.75" r="6.01"/><circle class="cls-5" cx="15.88" cy="104.23" r="6.01"/><circle class="cls-5" cx="110.22" cy="16.13" r="6.01"/><path class="cls-5" d="M124.1,106.06a.11.11,0,0,0-.09,0H124a.1.1,0,0,0,0,.14Z"/><path class="cls-5" d="M15.63,63.26a.1.1,0,0,0,.13.06.11.11,0,0,0,.06-.13.11.11,0,0,0-.13-.06A.11.11,0,0,0,15.63,63.26Z"/><path class="cls-5" d="M53.4,16.24a.11.11,0,0,0,0-.14l-.17.11A.1.1,0,0,0,53.4,16.24Z"/><path class="cls-5" d="M53.42,16.1a.11.11,0,0,0-.09,0h-.05a.1.1,0,0,0,0,.14Z"/><circle class="cls-5" cx="140.47" cy="46.82" r="6.01"/><path class="cls-5" d="M136.79,79.83a.1.1,0,0,0,.14,0,.11.11,0,0,0,0-.14Z"/><path class="cls-5" d="M137,79.72a.11.11,0,0,0-.09,0h-.05a.1.1,0,0,0,0,.14Z"/><path class="cls-5" d="M123.94,106.17a.1.1,0,0,0,.14,0,.11.11,0,0,0,0-.14Z"/><path class="cls-3" d="M122.92,56.31a.64.64,0,0,0,.64-.64V51.82a.64.64,0,1,0-1.29,0v3.86A.64.64,0,0,0,122.92,56.31Z"/><path class="cls-3" d="M122.92,64a.64.64,0,0,0,.64-.64V59.53a.64.64,0,1,0-1.29,0v3.86A.64.64,0,0,0,122.92,64Z"/><path class="cls-3" d="M122.92,48.28a.64.64,0,0,0,.64-.64v-.5h2.07a.64.64,0,1,0,0-1.29h-2.71a.64.64,0,0,0-.64.64v1.14A.64.64,0,0,0,122.92,48.28Z"/><path class="cls-3" d="M114.77,66.42h-3.42V67.7h3.42a.64.64,0,1,0,0-1.29Z"/><path class="cls-2" d="M108.78,36.22H45.93a1.4,1.4,0,0,0-1.4,1.4v70.76a.77.77,0,0,0,.29.59,1.33,1.33,0,0,0,2.28-.9V38.79h61.69v77.11H45.86a1.32,1.32,0,0,0-1.27.87,1.29,1.29,0,0,0,1.22,1.7h63a2.57,2.57,0,0,0,2.57-2.57V38.79A2.57,2.57,0,0,0,108.78,36.22Z"/><path class="cls-3" d="M123.28,67.06a.64.64,0,0,0-.64-.64h-3.86a.64.64,0,1,0,0,1.29h3.86A.64.64,0,0,0,123.28,67.06Z"/><path class="cls-3" d="M16.14,95.67a.62.62,0,0,0,.11-.33V91.47a.64.64,0,1,0-1.29,0v3.86a.63.63,0,0,0,.13.36,8.63,8.63,0,1,0,1.05,0Zm-.27,14.58a6,6,0,1,1,6-6A6,6,0,0,1,15.88,110.24Z"/><path class="cls-3" d="M17,38.14h2.69a.64.64,0,0,0,0-1.29H17.16s0-.07,0-.11A8.65,8.65,0,1,0,17,38.14ZM2.57,36.75a6,6,0,1,1,6,6A6,6,0,0,1,2.57,36.75Z"/><path class="cls-3" d="M110.22,7.55a8.58,8.58,0,0,0-8.56,8.11H99.14v1.29h2.54a8.58,8.58,0,1,0,8.54-9.39Zm0,14.59a6,6,0,1,1,6-6A6,6,0,0,1,110.22,22.14Z"/><path class="cls-3" d="M140.47,38.24a8.59,8.59,0,0,0-8.52,7.62h-2.63a.64.64,0,1,0,0,1.29h2.59a8.58,8.58,0,1,0,8.56-8.9Zm0,14.59a6,6,0,1,1,6-6A6,6,0,0,1,140.47,52.83Z"/><rect class="cls-3" x="63.16" y="31.08" width="1.29" height="3.86"/><path class="cls-3" d="M63.16,27.22h1.29V23.36a.63.63,0,0,0-.64-.69c-.4,0-.64.25-.64.75Z"/><path class="cls-3" d="M86.93,23.36v-.64H83.08V24h3.21A.64.64,0,0,0,86.93,23.36Z"/><path class="cls-3" d="M86.93,16.94h.64V15.65H86.29a.64.64,0,0,0-.64.64v2.57h1.29Z"/><rect class="cls-3" x="67.66" y="22.72" width="3.86" height="1.29"/><rect class="cls-3" x="75.37" y="22.72" width="3.86" height="1.29"/><rect class="cls-3" x="91.43" y="15.65" width="3.86" height="1.29"/><path class="cls-3" d="M18,82.48a.64.64,0,0,0,.64.64h3.86a.64.64,0,1,0,0-1.29H18.69A.64.64,0,0,0,18,82.48Z"/><path class="cls-3" d="M15,83.76v3.86a.64.64,0,1,0,1.29,0V83.76a.64.64,0,1,0-1.29,0Z"/><path class="cls-3" d="M30.25,81.84H26.4a.64.64,0,1,0,0,1.29h3.86a.64.64,0,0,0,0-1.29Z"/><path class="cls-3" d="M35.53,81.86l0,0H34a.64.64,0,0,0,0,1.29h1.49l.09-.09Z"/><path class="cls-1" d="M100.25,123.61H38.1v-80a.77.77,0,0,0-.29-.59,1.33,1.33,0,0,0-2.28.9v80.84a1.4,1.4,0,0,0,1.4,1.4h63a1.33,1.33,0,0,0,.9-2.28A.77.77,0,0,0,100.25,123.61Z"/><path class="cls-3" d="M23.74,38.14h1.51v1.06a.64.64,0,0,0,1.29,0V37.5a.64.64,0,0,0-.64-.64H23.74a.64.64,0,0,0,0,1.29Z"/><path class="cls-3" d="M26.51,62.56a.64.64,0,0,0,0-1.29V58.69a.64.64,0,0,0-1.29,0v3.23a.64.64,0,0,0,.64.64Z"/><path class="cls-3" d="M30.22,62.56h3.86a.64.64,0,0,0,0-1.29H30.22a.64.64,0,1,0,0,1.29Z"/><path class="cls-3" d="M26.53,43.38a.64.64,0,0,0-1.29,0v3.86a.64.64,0,1,0,1.29,0Z"/><path class="cls-3" d="M25.89,50.45a.64.64,0,0,0-.64.64v3.86a.64.64,0,1,0,1.29,0V51.09A.64.64,0,0,0,25.89,50.45Z"/><path class="cls-3" d="M18,64.29a2.48,2.48,0,1,0-1.41,1.26A2.45,2.45,0,0,0,18,64.29Z"/><path class="cls-3" d="M138.91,78.38a2.47,2.47,0,1,0-2.5,3.82,2.5,2.5,0,0,0,.47,0,2.47,2.47,0,0,0,2-3.86Zm-2.1,1.31h.05a.11.11,0,0,1,.09,0l-.16.11A.1.1,0,0,1,136.82,79.69Z"/><path class="cls-3" d="M52.88,18.59a2.5,2.5,0,0,0,.47,0,2.47,2.47,0,0,0,2-3.86h0a2.47,2.47,0,1,0-2.5,3.82Zm.52-2.34a.1.1,0,0,1-.14,0l.17-.11A.11.11,0,0,1,53.4,16.24Z"/><path class="cls-3" d="M126.06,104.73a2.47,2.47,0,1,0-2.5,3.82,2.5,2.5,0,0,0,.47,0,2.47,2.47,0,0,0,2-3.86ZM124,106H124a.11.11,0,0,1,.09,0l-.16.11A.1.1,0,0,1,124,106Z"/><path class="cls-1" d="M100.23,101.81a11.22,11.22,0,1,0-3.81,2.53l8.93,12,8.33,11.19,3.88-2.43Z"/><path class="cls-2" d="M118.55,124.33,101.78,102a12.49,12.49,0,1,0-11.86,4.2,12.64,12.64,0,0,0,2.36.22,12.36,12.36,0,0,0,3.52-.52l9.46,12.58,7.37,9.81a1.28,1.28,0,0,0,1.71.31l3.87-2.44a1.28,1.28,0,0,0,.34-1.86ZM90.4,103.69a10,10,0,1,1,8.44-2.34l-2.77,1.75A9.86,9.86,0,0,1,90.4,103.69ZM114,125.83,107.31,117,98.24,104.9c.35-.19.7-.4,1-.63s.42-.31.62-.47l15.75,21Z"/><path class="cls-1" d="M447.37,127.69H393.76a1.45,1.45,0,0,1-1.45-1.45V43.9a.8.8,0,0,1,.3-.61,1.37,1.37,0,0,1,2.35.92V125h52.72a.8.8,0,0,1,.61.3A1.37,1.37,0,0,1,447.37,127.69Z"/><path class="cls-2" d="M443.08,118.41H403.59a2.66,2.66,0,0,1-2.66-2.66V36.28a2.66,2.66,0,0,1,2.66-2.66h64.79a1.45,1.45,0,0,1,1.45,1.45V92.9a.72.72,0,0,1-.22.54,1.38,1.38,0,0,1-2.43-.86V36.27h-63.6v79.51h39.57a1.32,1.32,0,0,1,1.25,1.75A1.35,1.35,0,0,1,443.08,118.41Z"/><rect class="cls-1" x="407.22" y="41.23" width="56.97" height="23.85" rx="2" ry="2"/><rect class="cls-1" x="407.22" y="68.4" width="28.49" height="10.6" rx="2" ry="2"/><rect class="cls-1" x="407.22" y="82.97" width="28.49" height="10.6" rx="2" ry="2"/><rect class="cls-1" x="439.02" y="68.4" width="24.51" height="24.51" rx="2" ry="2"/><circle class="cls-2" cx="418.15" cy="48.85" r="3.31"/><path class="cls-2" d="M418.15,53.49h.66a5.3,5.3,0,0,1,5.3,5.3v0a0,0,0,0,1,0,0H412.85a0,0,0,0,1,0,0v0A5.3,5.3,0,0,1,418.15,53.49Z"/><rect class="cls-2" x="430.08" y="46.87" width="29.15" height="2.65" rx="1.32" ry="1.32"/><rect class="cls-2" x="430.08" y="51.5" width="29.15" height="2.65" rx="1.32" ry="1.32"/><rect class="cls-2" x="430.08" y="56.14" width="29.15" height="2.65" rx="1.32" ry="1.32"/><path class="cls-2" d="M465.36,97.18a16.56,16.56,0,1,0,16.56,16.56A16.58,16.58,0,0,0,465.36,97.18Z"/><path class="cls-4" d="M475.49,107.3a1.32,1.32,0,0,0-1.87,0l-12.08,12-4.74-4.74a1.32,1.32,0,0,0-1.87,1.87l5.67,5.67a1.32,1.32,0,0,0,1.87,0l13-13A1.32,1.32,0,0,0,475.49,107.3Z"/><path class="cls-1" d="M483.48,89.84a1.32,1.32,0,0,1-1-2.24l3.9-4.11a1.33,1.33,0,0,1,1.92,1.82l-3.9,4.11A1.32,1.32,0,0,1,483.48,89.84Z"/><path class="cls-1" d="M494.47,102.76a1.33,1.33,0,0,1-.38-2.6l5.43-1.61a1.32,1.32,0,0,1,.75,2.54l-5.43,1.61A1.32,1.32,0,0,1,494.47,102.76Z"/><path class="cls-1" d="M501.66,119.74a1.35,1.35,0,0,1-.31,0l-5.51-1.32a1.33,1.33,0,0,1,.62-2.58l5.51,1.32a1.33,1.33,0,0,1-.31,2.61Z"/><path class="cls-1" d="M494.43,137.41a1.32,1.32,0,0,1-.91-.36l-4.11-3.9a1.33,1.33,0,1,1,1.82-1.92l4.11,3.9a1.32,1.32,0,0,1-.91,2.29Z"/><path class="cls-1" d="M479.33,149.1a1.32,1.32,0,0,1-1.27-.95l-1.61-5.43A1.32,1.32,0,1,1,479,142l1.61,5.43a1.33,1.33,0,0,1-1.27,1.7Z"/><path class="cls-1" d="M460.42,151.68a1.35,1.35,0,0,1-.31,0,1.33,1.33,0,0,1-1-1.6l1.32-5.51a1.33,1.33,0,1,1,2.58.62l-1.32,5.51A1.33,1.33,0,0,1,460.42,151.68Z"/><path class="cls-1" d="M442.19,143.73a1.32,1.32,0,0,1-1-2.24l3.9-4.11a1.33,1.33,0,1,1,1.92,1.82l-3.9,4.11A1.32,1.32,0,0,1,442.19,143.73Z"/><path class="cls-1" d="M453.44,97.55h-44.9a1.32,1.32,0,0,0-1.32,1.32v8.61a1.33,1.33,0,0,0,1.32,1.32h37.31A20.17,20.17,0,0,1,453.44,97.55Z"/><path class="cls-6" d="M637.72,193.37c-18.51,18-86.5,44.84-172.22,45.47-70.49.51-120.34-26.74-137.89-46.08"/><polygon class="cls-1" points="332.33 192.49 328.48 193.63 326.63 197.21 323.88 188.08 332.33 192.49"/><path class="cls-6" d="M149.68,90.83s23.54-4,36.48-2.89"/><polygon class="cls-1" points="182.71 91.18 184.94 87.83 184.08 83.9 192.02 89.16 182.71 91.18"/><path class="cls-6" d="M323.51,91.49s23.14,4.81,36.91.77"/><polygon class="cls-1" points="359.18 96.62 359.2 92.59 356.32 89.78 365.85 89.81 359.18 96.62"/><path class="cls-6" d="M522.5,81.87a43,43,0,0,1,26.08-.77"/><polygon class="cls-1" points="544.62 83.65 547.4 80.74 547.23 76.72 554.14 83.28 544.62 83.65"/></g></g></svg>