<svg xmlns="http://www.w3.org/2000/svg" viewBox="0 0 231.96 188.25"><defs><style>.cls-1{fill:#b3e2fa;}.cls-2{fill:#e5f5fd;}.cls-3{fill:none;}.cls-4{fill:#17a0f0;}</style></defs><title>CDLJN-illustration_home-search-1</title><g id="Layer_2" data-name="Layer 2"><g id="lines"><rect class="cls-1" x="86.26" y="62.62" width="72" height="17" rx="1.9" ry="1.9"/><rect class="cls-1" x="86.26" y="85.62" width="72" height="17" rx="1.9" ry="1.9"/><rect class="cls-2" x="86.26" y="109.62" width="72" height="17" rx="1.9" ry="1.9"/><rect class="cls-2" x="86.26" y="132.62" width="72" height="17" rx="1.9" ry="1.9"/><path class="cls-3" d="M22.71,44.95a9.35,9.35,0,1,0-9.35,9.36A9.37,9.37,0,0,0,22.71,44.95Z"/><path class="cls-3" d="M24.71,140.61A9.35,9.35,0,1,0,34.06,150,9.37,9.37,0,0,0,24.71,140.61Z"/><path class="cls-3" d="M171.53,3.5a9.35,9.35,0,1,0,9.35,9.35A9.36,9.36,0,0,0,171.53,3.5Z"/><path class="cls-3" d="M193.14,152.81a.17.17,0,0,0-.14-.06l-.08,0a.16.16,0,0,0,0,.21Z"/><path class="cls-3" d="M24.32,86.2a.16.16,0,0,0,.2.09.18.18,0,0,0,.1-.2.18.18,0,0,0-.2-.09A.18.18,0,0,0,24.32,86.2Z"/><path class="cls-3" d="M83.1,13a.17.17,0,0,0,0-.22l-.26.17A.15.15,0,0,0,83.1,13Z"/><path class="cls-3" d="M83.14,12.81a.17.17,0,0,0-.14-.06l-.08,0a.16.16,0,0,0,0,.21Z"/><path class="cls-3" d="M218.61,51.26A9.35,9.35,0,1,0,228,60.61,9.36,9.36,0,0,0,218.61,51.26Z"/><path class="cls-3" d="M212.88,112a.15.15,0,0,0,.22,0,.17.17,0,0,0,0-.22Z"/><path class="cls-3" d="M213.14,111.81a.17.17,0,0,0-.14-.06l-.08,0a.16.16,0,0,0,0,.21Z"/><path class="cls-3" d="M192.88,153a.15.15,0,0,0,.22,0,.17.17,0,0,0,0-.22Z"/><path class="cls-2" d="M191.26,75.39a1,1,0,0,0,1-1v-6a1,1,0,0,0-2,0v6A1,1,0,0,0,191.26,75.39Z"/><path class="cls-2" d="M191.26,87.39a1,1,0,0,0,1-1v-6a1,1,0,0,0-2,0v6A1,1,0,0,0,191.26,87.39Z"/><path class="cls-2" d="M191.26,63.4a1,1,0,0,0,1-1v-.78h3.22a1,1,0,0,0,0-2h-4.22a1,1,0,0,0-1,1V62.4A1,1,0,0,0,191.26,63.4Z"/><path class="cls-2" d="M178.59,91.62h-5.33v2h5.33a1,1,0,0,0,0-2Z"/><path class="cls-4" d="M169.26,44.62H71.45a2.19,2.19,0,0,0-2.19,2.19V156.92a1.2,1.2,0,0,0,.45.92,2.07,2.07,0,0,0,3.55-1.39V48.62h96v120H71.34a2,2,0,0,0-2,1.35,2,2,0,0,0,1.9,2.65h98a4,4,0,0,0,4-4v-120A4,4,0,0,0,169.26,44.62Z"/><path class="cls-2" d="M191.86,92.62a1,1,0,0,0-1-1h-6a1,1,0,0,0,0,2h6A1,1,0,0,0,191.86,92.62Z"/><path class="cls-2" d="M25.09,136.64a1,1,0,0,0,.17-.52v-6a1,1,0,0,0-2,0v6a1,1,0,0,0,.19.56,13.42,13.42,0,1,0,1.64,0Zm-.38,22.69A9.35,9.35,0,1,1,34.06,150,9.37,9.37,0,0,1,24.71,159.32Z"/><path class="cls-2" d="M26.52,47.62h4.19a1,1,0,1,0,0-2h-4c0-.06,0-.11,0-.17a13.46,13.46,0,1,0-.19,2.17ZM4,44.95a9.35,9.35,0,1,1,9.35,9.36A9.37,9.37,0,0,1,4,44.95Z"/><path class="cls-2" d="M173.2.11a13.36,13.36,0,0,0-15,12.51h-3.92v2h4A13.35,13.35,0,1,0,173.2.11Zm-1.67,22.1a9.35,9.35,0,1,1,9.35-9.35A9.36,9.36,0,0,1,171.53,22.21Z"/><path class="cls-2" d="M219.58,47.79a13.37,13.37,0,0,0-14.24,11.82h-4.09a1,1,0,0,0,0,2h4a13.35,13.35,0,1,0,14.3-13.82Zm-1,22.17A9.35,9.35,0,1,1,228,60.61,9.36,9.36,0,0,1,218.61,70Z"/><rect class="cls-2" x="98.26" y="36.62" width="2" height="6"/><path class="cls-2" d="M98.26,30.62h2v-6a1,1,0,0,0-1-1.08c-.62,0-1,.39-1,1.17Z"/><path class="cls-2" d="M135.26,24.62v-1h-6v2h5A1,1,0,0,0,135.26,24.62Z"/><path class="cls-2" d="M135.26,14.62h1v-2h-2a1,1,0,0,0-1,1v4h2Z"/><rect class="cls-2" x="105.26" y="23.62" width="6" height="2"/><rect class="cls-2" x="117.26" y="23.62" width="6" height="2"/><rect class="cls-2" x="142.26" y="12.62" width="6" height="2"/><path class="cls-2" d="M28.08,116.62a1,1,0,0,0,1,1h6a1,1,0,0,0,0-2h-6A1,1,0,0,0,28.08,116.62Z"/><path class="cls-2" d="M23.26,118.11v6a1,1,0,0,0,2,0v-6a1,1,0,0,0-2,0Z"/><path class="cls-2" d="M47.08,115.62h-6a1,1,0,1,0,0,2h6a1,1,0,0,0,0-2Z"/><path class="cls-2" d="M55.26,115.64l0,0H52.81a1,1,0,0,0,0,2h2.31l.13-.13Z"/><path class="cls-1" d="M156,180.62H59.26V56.15a1.2,1.2,0,0,0-.45-.92,2.07,2.07,0,0,0-3.55,1.4V182.43a2.19,2.19,0,0,0,2.19,2.19h98.07a2.07,2.07,0,0,0,1.4-3.55A1.2,1.2,0,0,0,156,180.62Z"/><path class="cls-2" d="M36.92,47.62h2.34v1.66a1,1,0,1,0,2,0V46.62a1,1,0,0,0-1-1H36.92a1,1,0,0,0,0,2Z"/><path class="cls-2" d="M41.23,85.62a1,1,0,0,0,0-2v-4a1,1,0,0,0-2,0v5a1,1,0,0,0,1,1Z"/><path class="cls-2" d="M47,85.62h6a1,1,0,0,0,0-2H47a1,1,0,1,0,0,2Z"/><path class="cls-2" d="M41.26,55.27a1,1,0,0,0-2,0v6a1,1,0,1,0,2,0Z"/><path class="cls-2" d="M40.26,66.27a1,1,0,0,0-1,1v6a1,1,0,0,0,2,0v-6A1,1,0,0,0,40.26,66.27Z"/><path class="cls-2" d="M27.94,87.8a3.86,3.86,0,1,0-2.19,2A3.82,3.82,0,0,0,27.94,87.8Z"/><path class="cls-2" d="M216.19,109.74a3.84,3.84,0,1,0-3.9,5.94,3.9,3.9,0,0,0,.73.07,3.85,3.85,0,0,0,3.17-6Zm-3.27,2,.08,0a.17.17,0,0,1,.14.06l-.26.17A.16.16,0,0,1,212.92,111.77Z"/><path class="cls-2" d="M82.29,16.68a3.9,3.9,0,0,0,.73.07,3.85,3.85,0,0,0,3.17-6h0a3.84,3.84,0,1,0-3.9,5.94ZM83.1,13a.15.15,0,0,1-.22,0l.26-.17A.17.17,0,0,1,83.1,13Z"/><path class="cls-2" d="M196.19,150.74a3.84,3.84,0,1,0-3.9,5.94,3.9,3.9,0,0,0,.73.07,3.85,3.85,0,0,0,3.17-6Zm-3.27,2,.08,0a.17.17,0,0,1,.14.06l-.26.17A.16.16,0,0,1,192.92,152.77Z"/><path class="cls-1" d="M156,146.2a17.46,17.46,0,1,0-5.93,3.94L164,168.8l13,17.41,6-3.78Z"/><path class="cls-4" d="M184.5,181.24l-26.1-34.73a19.44,19.44,0,1,0-18.46,6.54,19.67,19.67,0,0,0,3.67.35,19.23,19.23,0,0,0,5.48-.8l14.72,19.58,11.47,15.27a2,2,0,0,0,2.67.49l6-3.8a2,2,0,0,0,.53-2.89Zm-43.81-32.12a15.49,15.49,0,1,1,13.14-3.64l-4.31,2.72A15.34,15.34,0,0,1,140.68,149.12Zm36.68,34.45L167,169.78,152.89,151c.55-.3,1.09-.62,1.62-1,.34-.23.65-.48,1-.73L180,181.91Z"/></g></g></svg>