<svg xmlns="http://www.w3.org/2000/svg" viewBox="0 0 199.96 180.04"><defs><style>.cls-1{fill:#b3e2fa;}.cls-2{fill:#17a0f0;}.cls-3{fill:#e5f5fd;}.cls-4{fill:#fff;}.cls-5{fill:none;}</style></defs><title>CDLJN-illustration_home-search-4</title><g id="Layer_2" data-name="Layer 2"><g id="lines"><path class="cls-1" d="M99.15,31.78a2.16,2.16,0,0,1-3.64,1.57L88.8,27a2.16,2.16,0,0,1,3-3.14l6.71,6.35A2.16,2.16,0,0,1,99.15,31.78Z"/><path class="cls-1" d="M120.21,13.88a2.16,2.16,0,0,1-4.23.61l-2.63-8.86a2.16,2.16,0,0,1,4.14-1.23l2.63,8.86A2.15,2.15,0,0,1,120.21,13.88Z"/><path class="cls-1" d="M147.89,2.16a2.19,2.19,0,0,1-.06.51l-2.15,9a2.16,2.16,0,0,1-4.2-1l2.15-9a2.16,2.16,0,0,1,4.26.5Z"/><path class="cls-1" d="M176.69,13.94a2.15,2.15,0,0,1-.59,1.49l-6.35,6.71a2.16,2.16,0,1,1-3.14-3L173,12.45a2.16,2.16,0,0,1,3.73,1.49Z"/><path class="cls-1" d="M195.75,38.54a2.16,2.16,0,0,1-1.55,2.07l-8.86,2.63a2.16,2.16,0,1,1-1.23-4.14L193,36.47a2.16,2.16,0,0,1,2.77,2.07Z"/><path class="cls-1" d="M200,69.38a2.19,2.19,0,0,1-.06.51,2.16,2.16,0,0,1-2.6,1.6l-9-2.15a2.16,2.16,0,1,1,1-4.2l9,2.15A2.16,2.16,0,0,1,200,69.38Z"/><path class="cls-1" d="M184.84,101.09a2,2,0,0,1-1.38-.55l-6.71-6.35a2,2,0,1,1,2.75-2.9l6.71,6.35a2,2,0,0,1-1.38,3.45Z"/><path class="cls-1" d="M67,161H2.19A2.19,2.19,0,0,1,0,158.86V42.57a1.2,1.2,0,0,1,.45-.92A2.07,2.07,0,0,1,4,43V157H67.47a1.2,1.2,0,0,1,.92.45A2.07,2.07,0,0,1,67,161Z"/><path class="cls-2" d="M46.16,141a5.5,5.5,0,1,1,5.5-5.5A5.51,5.51,0,0,1,46.16,141Zm0-9a3.5,3.5,0,1,0,3.5,3.5A3.5,3.5,0,0,0,46.16,132Z"/><polygon class="cls-3" points="52.45 40.04 22 70.12 22 111.41 70 63.99 70 40.04 52.45 40.04"/><polygon class="cls-3" points="22 126.04 27.86 126.04 70 86.12 70 71.85 22 117.32 22 126.04"/><path class="cls-2" d="M68.66,39h-47a1,1,0,0,1,0-2h47a1,1,0,0,1,0,2Z"/><circle class="cls-2" cx="137" cy="61.04" r="27"/><path class="cls-4" d="M134.86,73a2.62,2.62,0,1,0,5.22,0ZM146,66.52V58.14a9.73,9.73,0,0,0-7-9.59v-.88a2.25,2.25,0,0,0-2-2.33,2,2,0,0,0-2,2.17v1a9.73,9.73,0,0,0-7,9.59v8.73l-3,3V71h24V69.53l-3-3Z"/><polygon class="cls-5" points="182 174.87 182 174.04 180.51 174.04 182 174.87"/><path class="cls-3" d="M191.62,111H85a2,2,0,0,0-2,2v4h99.76a2.62,2.62,0,0,1,1.68.51c.51.46.56.86.56,2V174h6.62a4,4,0,0,0,2.38-2.41V112.46C193.62,111.36,191.62,111,191.62,111Z"/><path class="cls-2" d="M185.44,117.6a2.47,2.47,0,0,0-1.68-.56H69.85a4.67,4.67,0,0,0-2.73.69h0A2.61,2.61,0,0,0,66,119.89V126H22a1,1,0,0,0,0,2H66v15H18V34H74V108a2,2,0,0,0,1.35,2A2,2,0,0,0,78,108V34a4,4,0,0,0-4-4H18a4,4,0,0,0-4,4V143a4,4,0,0,0,4,4H66V166a2,2,0,0,0,1.35,2A2,2,0,0,0,70,166V122.77l13.56,8.64,37.32,23.77a9.65,9.65,0,0,0,5.06,1.36,9.53,9.53,0,0,0,5.1-1.39l51-31.69v51l-1.49-.83-28.94-16.16a2,2,0,0,0-2.91,1.23,2.06,2.06,0,0,0,1,2.31l22.61,12.62,4.32,2.41H75.36l8.2-4.57,18.18-10.13a2.06,2.06,0,0,0,1-2.3,2,2,0,0,0-2.91-1.24l-16.32,9.09-16.81,9.36a2,2,0,0,0-1.07,1.44,2,2,0,0,0,2,2.34h116.4c1.27,0,1.94-.71,1.94-1.5V119.8C186,118.54,185.95,118.1,185.44,117.6Zm-56.88,33.9a6,6,0,0,1-5.89,0L83.21,126.39,74.81,121l103.13-.25Z"/></g></g></svg>