<svg xmlns="http://www.w3.org/2000/svg" viewBox="0 0 167.05 178.22"><defs><style>.cls-1{fill:#b3e2fa;}.cls-2{fill:#17a0f0;}.cls-3{fill:#fff;}</style></defs><title>CDLJN-illustration_home-search-3</title><g id="Layer_2" data-name="Layer 2"><g id="lines"><path class="cls-1" d="M83.1,142H2.19A2.19,2.19,0,0,1,0,139.81V15.53a1.2,1.2,0,0,1,.45-.92A2.07,2.07,0,0,1,4,16V138H83.57a1.2,1.2,0,0,1,.92.45A2.07,2.07,0,0,1,83.1,142Z"/><path class="cls-2" d="M76.63,128H17a4,4,0,0,1-4-4V4a4,4,0,0,1,4-4h97.8A2.19,2.19,0,0,1,117,2.19v87.3a1.08,1.08,0,0,1-.33.81C115,91.81,113,90.64,113,89V4L17,4l0,120,59.74,0a2,2,0,0,1,1.89,2.64A2,2,0,0,1,76.63,128Z"/><rect class="cls-1" x="22.5" y="11.5" width="86" height="36" rx="2" ry="2"/><rect class="cls-1" x="22.5" y="52.5" width="43" height="16" rx="2" ry="2"/><rect class="cls-1" x="22.5" y="74.5" width="43" height="16" rx="2" ry="2"/><rect class="cls-1" x="70.5" y="52.5" width="37" height="37" rx="2" ry="2"/><circle class="cls-2" cx="39" cy="23" r="5"/><path class="cls-2" d="M38.74,30h1.53A7.74,7.74,0,0,1,48,37.74V38a0,0,0,0,1,0,0H31a0,0,0,0,1,0,0v-.26A7.74,7.74,0,0,1,38.74,30Z"/><rect class="cls-2" x="57" y="20" width="44" height="4" rx="2" ry="2"/><rect class="cls-2" x="57" y="27" width="44" height="4" rx="2" ry="2"/><rect class="cls-2" x="57" y="34" width="44" height="4" rx="2" ry="2"/><path class="cls-2" d="M110.26,96a25,25,0,1,0,25,25A25,25,0,0,0,110.26,96Z"/><path class="cls-3" d="M125.56,111.22a2,2,0,0,0-2.83,0l-18.24,18.16-7.15-7.15a2,2,0,0,0-2.83,2.83l8.56,8.56a2,2,0,0,0,2.83,0L125.56,114A2,2,0,0,0,125.56,111.22Z"/><path class="cls-1" d="M137.61,84.86a2,2,0,0,1-1.45-3.38L142,75.28A2,2,0,0,1,145,78l-5.88,6.21A2,2,0,0,1,137.61,84.86Z"/><path class="cls-1" d="M154.19,104.37a2,2,0,0,1-.57-3.92l8.2-2.44a2,2,0,0,1,1.14,3.83l-8.2,2.44A2,2,0,0,1,154.19,104.37Z"/><path class="cls-1" d="M165,130a2,2,0,0,1-.47-.06l-8.32-2a2,2,0,0,1,.93-3.89l8.32,2A2,2,0,0,1,165,130Z"/><path class="cls-1" d="M154.14,156.67a2,2,0,0,1-1.38-.55l-6.21-5.88a2,2,0,1,1,2.75-2.9l6.21,5.88a2,2,0,0,1-1.38,3.45Z"/><path class="cls-1" d="M131.35,174.33a2,2,0,0,1-1.92-1.43l-2.44-8.2a2,2,0,1,1,3.83-1.14l2.44,8.2a2,2,0,0,1-1.92,2.57Z"/><path class="cls-1" d="M102.8,178.22a2,2,0,0,1-.47-.06,2,2,0,0,1-1.48-2.41l2-8.32a2,2,0,1,1,3.89.93l-2,8.32A2,2,0,0,1,102.8,178.22Z"/><path class="cls-1" d="M75.28,166.22a2,2,0,0,1-1.45-3.38l5.88-6.21a2,2,0,1,1,2.9,2.75l-5.88,6.21A2,2,0,0,1,75.28,166.22Z"/><path class="cls-1" d="M92.27,96.5H24.5a2,2,0,0,0-2,2v13a2,2,0,0,0,2,2H80.82A30.45,30.45,0,0,1,92.27,96.5Z"/></g></g></svg>