<svg xmlns="http://www.w3.org/2000/svg" viewBox="0 0 193.53 190.65"><defs><style>.cls-1{fill:#e5f5fd;}.cls-2{fill:#b3e2fa;}.cls-3{fill:#17a0f0;}</style></defs><title>CDLJN-illustration_home-search-2</title><g id="Layer_2" data-name="Layer 2"><g id="lines"><path class="cls-1" d="M114.71,77.8a2,2,0,0,1-1.08-3.68,13.7,13.7,0,0,0,6-9.93,2,2,0,1,1,4,.54,17.63,17.63,0,0,1-7.8,12.75A2,2,0,0,1,114.71,77.8Z"/><path class="cls-1" d="M119.41,55.6a2,2,0,0,1-1.72-1A14.8,14.8,0,0,0,105,47.44a14.64,14.64,0,0,0-11.6,5.66,2,2,0,0,1-3.15-2.46A18.62,18.62,0,0,1,105,43.44a18.83,18.83,0,0,1,16.08,9.13,2,2,0,0,1-1.71,3Z"/><path class="cls-1" d="M128.69,50.29a2,2,0,0,1-1.73-1A25.33,25.33,0,0,0,109.2,37.09a2,2,0,0,1,.65-3.95,29.32,29.32,0,0,1,20.56,14.13,2,2,0,0,1-1.72,3Z"/><path class="cls-1" d="M79.56,54.06a2,2,0,0,1-1.86-2.74A29.39,29.39,0,0,1,92.13,35.74a2,2,0,1,1,1.76,3.59A25.4,25.4,0,0,0,81.42,52.8,2,2,0,0,1,79.56,54.06Z"/><path class="cls-1" d="M114.71,89.82a2,2,0,0,1-.62-3.9c8.38-2.76,14.36-10,16-19.36a2,2,0,1,1,3.94.69c-1.89,10.84-8.87,19.25-18.68,22.47A2,2,0,0,1,114.71,89.82Z"/><path class="cls-1" d="M137,44.34a2,2,0,0,1-1.7-.95,35.83,35.83,0,0,0-5.45-6.77,2,2,0,1,1,2.79-2.87,39.82,39.82,0,0,1,6.05,7.53,2,2,0,0,1-1.7,3.05Z"/><path class="cls-1" d="M69.05,53.15a2,2,0,0,1-1.91-2.59A39.65,39.65,0,0,1,126.79,29a2,2,0,0,1-2.2,3.34A35.65,35.65,0,0,0,71,51.73,2,2,0,0,1,69.05,53.15Z"/><path class="cls-1" d="M115.43,100.35a2,2,0,0,1-.55-3.92,35.82,35.82,0,0,0,25.25-28,2,2,0,0,1,3.94.7A39.84,39.84,0,0,1,116,100.27,2,2,0,0,1,115.43,100.35Z"/><path class="cls-1" d="M61.73,44.34a2,2,0,0,1-1.82-2.83,49.78,49.78,0,0,1,45.13-29,49.25,49.25,0,0,1,39.73,19.88,2,2,0,0,1-3.2,2.4A45.28,45.28,0,0,0,105,16.54a45.77,45.77,0,0,0-41.5,26.64A2,2,0,0,1,61.73,44.34Z"/><path class="cls-1" d="M115.4,110.66a2,2,0,0,1-.43-4,46,46,0,0,0,28.53-20,2,2,0,0,1,3.37,2.16,50,50,0,0,1-31,21.71A2,2,0,0,1,115.4,110.66Z"/><path class="cls-1" d="M149.49,81.31a2,2,0,0,1-1.87-2.72,45.4,45.4,0,0,0,2.15-7.36,2,2,0,1,1,3.92.79,49.47,49.47,0,0,1-2.34,8A2,2,0,0,1,149.49,81.31Z"/><path class="cls-2" d="M153,11.14a2,2,0,0,1-3.37-2.08l3.4-7.85a2,2,0,0,1,3.67,1.59l-3.4,7.85A2,2,0,0,1,153,11.14Z"/><path class="cls-2" d="M179.63,19.29a2,2,0,0,1-.34.32l-6.87,5.1A2,2,0,0,1,170,21.49l6.87-5.1a2,2,0,0,1,2.73,2.89Z"/><path class="cls-2" d="M193.07,44.79a2,2,0,0,1-1.3.7l-8.5,1a2,2,0,1,1-.46-4l8.5-1a2,2,0,0,1,1.76,3.27Z"/><path class="cls-2" d="M192,73.59a2,2,0,0,1-2.33.55l-7.85-3.4a2,2,0,1,1,1.59-3.67l7.85,3.4a2,2,0,0,1,.74,3.12Z"/><path class="cls-2" d="M176.59,98a2,2,0,0,1-.34.32,2,2,0,0,1-2.8-.42L168.35,91a2,2,0,1,1,3.21-2.38l5.1,6.87A2,2,0,0,1,176.59,98Z"/><path class="cls-2" d="M98,190.65H2.19A2.19,2.19,0,0,1,0,188.47V64.18a1.2,1.2,0,0,1,.45-.92A2.07,2.07,0,0,1,4,64.65v122H98.47a1.2,1.2,0,0,1,.92.45A2.07,2.07,0,0,1,98,190.65Z"/><rect class="cls-2" x="28" y="67.65" width="30" height="17" rx="1.9" ry="1.9"/><path class="cls-1" d="M100.74,99.65H28.82a2,2,0,0,1-2-1.35,2,2,0,0,1,1.9-2.65h71.92a2,2,0,0,1,2,1.35A2,2,0,0,1,100.74,99.65Z"/><path class="cls-1" d="M100.74,108.65H28.82a2,2,0,0,1-2-1.35,2,2,0,0,1,1.9-2.65h71.92a2,2,0,0,1,2,1.35A2,2,0,0,1,100.74,108.65Z"/><path class="cls-1" d="M100.74,118.65H28.82a2,2,0,0,1-2-1.35,2,2,0,0,1,1.9-2.65h71.92a2,2,0,0,1,2,1.35A2,2,0,0,1,100.74,118.65Z"/><path class="cls-1" d="M100.74,127.65H28.82a2,2,0,0,1-2-1.35,2,2,0,0,1,1.9-2.65h71.92a2,2,0,0,1,2,1.35A2,2,0,0,1,100.74,127.65Z"/><path class="cls-1" d="M100.74,136.65H28.82a2,2,0,0,1-2-1.35,2,2,0,0,1,1.9-2.65h71.92a2,2,0,0,1,2,1.35A2,2,0,0,1,100.74,136.65Z"/><polygon class="cls-2" points="154.88 59.95 142.1 53.52 151 42.34 163.78 48.77 154.88 59.95"/><path class="cls-3" d="M166,48a2,2,0,0,0-1.05-1.36l-12.78-6.43a2,2,0,0,0-2.46.54l-8.06,10.12L117,57V52.9a3.24,3.24,0,0,0-3.24-3.24H15.19A2.19,2.19,0,0,0,13,51.84V161.12a1.2,1.2,0,0,0,.45.92A2.07,2.07,0,0,0,17,160.65v-107h96V58l-6,1.42V59a2,2,0,0,0-1.35-2A2,2,0,0,0,103,59v5.5a2,2,0,0,0,1.35,2,2,2,0,0,0,2.65-1.9v-1a6.37,6.37,0,0,0,.67,0L113,62.16V173.65H16.08a2,2,0,0,0-2,1.35,2,2,0,0,0,1.9,2.65h97.76a3.24,3.24,0,0,0,3.24-3.24V61.16L141.56,55l12.68,6.38a2,2,0,0,0,2.46-.54l8.9-11.18A2,2,0,0,0,166,48Zm-11.67,9.4-9.13-4.59,6.36-8,9.13,4.59Z"/></g></g></svg>