<svg xmlns="http://www.w3.org/2000/svg" width="36" height="29" viewBox="0 0 36 29">
  <path fill="#FFFFFF" d="M32.3265306,8.17765748 C32.3265306,7.8636811 32.3265306,7.54970472 32.3121248,7.23572835 C33.7527011,6.20816929 35.0060024,4.90944882 36,3.4394685 C34.6746699,4.0246063 33.2484994,4.40994094 31.7503001,4.59547244 C33.2773109,3.69635827 34.4441777,2.25492126 35.0060024,0.542322835 C33.5798319,1.38435039 31.9951981,1.98375984 30.3097239,2.31200787 C28.9555822,0.88484252 27.0396158,0 24.9219688,0 C20.8451381,0 17.5318127,3.28248031 17.5318127,7.32135827 C17.5318127,7.89222441 17.6038415,8.4488189 17.7190876,8.99114173 C11.5822329,8.69143701 6.13685474,5.76574803 2.49219688,1.34153543 C1.85834334,2.4261811 1.49819928,3.68208661 1.49819928,5.02362205 C1.49819928,7.56397638 2.80912365,9.80462598 4.78271309,11.1176181 C3.57262905,11.0748031 2.43457383,10.7465551 1.44057623,10.2042323 L1.44057623,10.3041339 C1.44057623,13.8435039 3.99039616,16.8120079 7.36134454,17.4827756 C6.74189676,17.6540354 6.09363745,17.7396654 5.41656663,17.7396654 C4.94117647,17.7396654 4.48019208,17.6968504 4.03361345,17.6112205 C4.969988,20.5226378 7.70708283,22.6348425 10.9339736,22.6919291 C8.39855942,24.6614173 5.21488595,25.8316929 1.757503,25.8316929 C1.16686675,25.8316929 0.576230492,25.8031496 0,25.7317913 C3.25570228,27.7869094 7.1452581,29 11.3085234,29 C24.8931573,29 32.3265306,17.8395669 32.3265306,8.17765748 Z" opacity=".7"/>
</svg>
